<svg id="american-express" xmlns="http://www.w3.org/2000/svg" width="32" height="32" viewBox="0 0 32 32">
  <circle id="Ellipse_1" data-name="Ellipse 1" cx="16" cy="16" r="16" transform="translate(0 0)" fill="#27ade4"/>
  <path id="Path_8" data-name="Path 8" d="M34.559,162l-.5-1.237-.5,1.237m11.983-.493a.663.663,0,0,1-.36.064H44.3v-.689h.9a.736.736,0,0,1,.346.055.286.286,0,0,1,.153.275.318.318,0,0,1-.15.295m6.315.493-.5-1.237-.5,1.237ZM40.09,163.335h-.747l0-2.431-1.057,2.431h-.64L36.585,160.9v2.433H35.1l-.28-.692H33.305l-.283.692h-.791l1.3-3.1h1.083l1.239,2.939v-2.939h1.189L38,162.337l.876-2.106H40.09v3.1Zm2.977,0H40.633v-3.1h2.434v.647H41.362v.559h1.665v.636H41.362v.619h1.705v.642Zm3.432-2.268a.874.874,0,0,1-.514.827.845.845,0,0,1,.36.262.9.9,0,0,1,.121.569v.61h-.735l0-.391a.946.946,0,0,0-.115-.6c-.107-.109-.269-.133-.531-.133H44.3v1.129h-.729v-3.1h1.676a1.687,1.687,0,0,1,.882.149.727.727,0,0,1,.369.688m1.166,2.268h-.743v-3.1h.743Zm8.626,0H55.259l-1.381-2.33v2.33H52.394l-.283-.692H50.6l-.275.692h-.853a1.514,1.514,0,0,1-1.057-.344,1.578,1.578,0,0,1-.389-1.185,1.667,1.667,0,0,1,.393-1.213,1.462,1.462,0,0,1,1.107-.362h.705v.665h-.691a.694.694,0,0,0-.561.184,1.038,1.038,0,0,0-.21.7,1.088,1.088,0,0,0,.2.729.693.693,0,0,0,.508.16H49.8l1.027-2.441h1.092l1.234,2.936v-2.936h1.11l1.281,2.161v-2.161h.746v3.1Zm-24.069.61h1.245l.281-.69h.628l.28.69h2.45v-.527l.219.529H38.6l.219-.537v.535H44.9l0-1.132h.118c.083,0,.107.011.107.15v.982h3.149v-.263a2.459,2.459,0,0,0,1.169.263h1.325l.283-.69h.629l.277.69h2.553v-.655l.387.655h2.046v-4.329H54.917v.511l-.283-.511H52.556v.511l-.26-.511H49.49a2.485,2.485,0,0,0-1.216.253v-.253H46.337v.253a1.185,1.185,0,0,0-.823-.253H38.44l-.475,1.118-.487-1.118H35.25v.511L35,159.616H33.1l-.883,2.058-1.012,2.271Z" transform="translate(-29.096 -148.845)" fill="#2d78bc"/>
  <path id="Path_9" data-name="Path 9" d="M34.559,165.738l-.5-1.237-.5,1.237m11.983-.493a.663.663,0,0,1-.36.064H44.3v-.689h.9a.736.736,0,0,1,.346.055.286.286,0,0,1,.153.275.318.318,0,0,1-.15.295m6.315.493-.5-1.237-.5,1.237ZM40.09,167.077h-.747l0-2.431-1.057,2.431h-.64l-1.059-2.433v2.433H35.1l-.28-.692H33.305l-.283.692h-.791l1.3-3.1h1.083l1.239,2.939v-2.939h1.189L38,166.079l.876-2.106H40.09v3.1Zm2.977,0H40.633v-3.1h2.434v.647H41.362v.559h1.665v.636H41.362v.619h1.705v.642ZM46.5,164.81a.874.874,0,0,1-.514.827.845.845,0,0,1,.36.262.9.9,0,0,1,.121.569v.61h-.735l0-.391a.946.946,0,0,0-.115-.6c-.107-.109-.269-.133-.531-.133H44.3v1.129h-.729v-3.1h1.676a1.688,1.688,0,0,1,.882.149.727.727,0,0,1,.369.688m1.166,2.268h-.743v-3.1h.743Zm8.626,0H55.259l-1.381-2.33v2.33H52.394l-.283-.692H50.6l-.275.692h-.853a1.514,1.514,0,0,1-1.057-.343,1.578,1.578,0,0,1-.389-1.185,1.667,1.667,0,0,1,.393-1.213,1.462,1.462,0,0,1,1.107-.362h.705v.665h-.691a.694.694,0,0,0-.561.184,1.039,1.039,0,0,0-.21.7,1.088,1.088,0,0,0,.2.729.693.693,0,0,0,.508.16H49.8l1.027-2.441h1.092l1.234,2.936v-2.936h1.11l1.281,2.161v-2.161h.746v3.1Zm-24.069.61h1.245l.281-.69h.628l.28.69h2.45v-.527l.219.529H38.6l.219-.537v.535H44.9l0-1.132h.118c.083,0,.107.011.107.15v.982h3.149v-.263a2.459,2.459,0,0,0,1.169.263h1.325l.283-.69h.629l.277.69h2.553v-.655l.387.655h2.046v-4.329H54.917v.511l-.283-.511H52.556v.511l-.26-.511H49.49a2.485,2.485,0,0,0-1.216.253v-.253H46.337v.253a1.185,1.185,0,0,0-.823-.253H38.44l-.475,1.118-.487-1.118H35.25v.511L35,163.358H33.1l-.883,2.058-1.012,2.271Z" transform="translate(-29.096 -152.334)" fill="#fff"/>
  <path id="Path_10" data-name="Path 10" d="M143.116,239.382V237.4h-1.833a1.515,1.515,0,0,0-.916.253V237.4h-2a1.373,1.373,0,0,0-.874.253V237.4h-3.58v.253a1.887,1.887,0,0,0-.987-.253h-2.361v.253a1.654,1.654,0,0,0-1.032-.253h-2.642l-.6.662-.566-.662h-3.947v4.328h3.872l.623-.673.587.673,2.387,0v-1.019h.234a2.456,2.456,0,0,0,1.02-.152v1.168h1.969V240.6h.1c.121,0,.133.005.133.128v1h5.981a1.7,1.7,0,0,0,1-.277v.277h1.9a2.514,2.514,0,0,0,1.074-.2v0a1.566,1.566,0,0,0,.479-2.138Zm-13.611.693h-.914v1.041h-1.423l-.9-1.027-.937,1.027h-2.9v-3.1h2.945l.9,1.017.931-1.017h2.34c.581,0,1.234.163,1.234,1.022S130.145,240.075,129.505,240.075Zm4.406-.141a.912.912,0,0,1,.121.566v.615H133.3v-.388a.927.927,0,0,0-.119-.607c-.107-.111-.27-.138-.537-.138h-.783v1.133h-.735v-3.1h1.69a1.791,1.791,0,0,1,.881.147.728.728,0,0,1,.376.689.869.869,0,0,1-.519.825A.8.8,0,0,1,133.912,239.934Zm3.01-1.279h-1.715v.564h1.673v.633h-1.673v.617l1.715,0v.644h-2.444v-3.1h2.444v.642Zm1.865,2.461H137.36v-.665h1.421a.424.424,0,0,0,.3-.077.277.277,0,0,0,.086-.2.268.268,0,0,0-.09-.206.38.38,0,0,0-.261-.069c-.685-.023-1.542.021-1.542-.961a.916.916,0,0,1,1.047-.923h1.468v.66h-1.343a.494.494,0,0,0-.294.056.262.262,0,0,0,.05.455.843.843,0,0,0,.285.035l.394.011a1.17,1.17,0,0,1,.836.249.868.868,0,0,1,.219.657C139.936,240.8,139.525,241.115,138.786,241.115Zm3.768-.3a1.237,1.237,0,0,1-.91.3h-1.414v-.665h1.408a.41.41,0,0,0,.3-.077.273.273,0,0,0,.086-.2.257.257,0,0,0-.09-.206.367.367,0,0,0-.258-.069c-.688-.023-1.545.021-1.545-.961a.919.919,0,0,1,1.051-.923h1.431v.66H141.3a.505.505,0,0,0-.3.056.242.242,0,0,0-.107.223.234.234,0,0,0,.16.231.822.822,0,0,0,.282.035l.4.011a1.145,1.145,0,0,1,.83.25.416.416,0,0,1,.068.077l-.025-.032a1.019,1.019,0,0,1-.059,1.292ZM125,238.655l.8.9-.837.91h-1.8v-.617h1.608v-.633h-1.608v-.564Zm1.744.915,1.124-1.223v2.487Zm3.256-.534c0,.269-.175.41-.457.41h-.946v-.79h.955C129.811,238.655,129.995,238.763,129.995,239.035Zm3.268-.045a.335.335,0,0,1-.152.3.693.693,0,0,1-.361.064h-.89v-.7h.9a.713.713,0,0,1,.35.056A.3.3,0,0,1,133.262,238.99Z" transform="translate(-113.629 -221.376)" fill="#2d78bc"/>
  <path id="Path_11" data-name="Path 11" d="M143.116,243.124v-1.986h-1.833a1.515,1.515,0,0,0-.916.253v-.253h-2a1.373,1.373,0,0,0-.874.253v-.253h-3.58v.253a1.887,1.887,0,0,0-.987-.253h-2.361v.253a1.654,1.654,0,0,0-1.032-.253h-2.642l-.6.662-.566-.662h-3.947v4.328h3.872l.623-.673.587.673,2.387,0V244.45h.234a2.456,2.456,0,0,0,1.02-.152v1.168h1.969v-1.128h.1c.121,0,.133.005.133.128v1h5.981a1.7,1.7,0,0,0,1-.277v.277h1.9a2.515,2.515,0,0,0,1.074-.2v0a1.566,1.566,0,0,0,.479-2.138Zm-13.611.693h-.914v1.041h-1.423l-.9-1.027-.937,1.027h-2.9v-3.1h2.945l.9,1.017.931-1.017h2.34c.581,0,1.234.163,1.234,1.022S130.145,243.817,129.505,243.817Zm4.406-.141a.912.912,0,0,1,.121.566v.615H133.3v-.388a.927.927,0,0,0-.119-.607c-.107-.111-.27-.138-.537-.138h-.783v1.133h-.735v-3.1h1.69a1.791,1.791,0,0,1,.881.147.727.727,0,0,1,.376.689.869.869,0,0,1-.519.825A.8.8,0,0,1,133.912,243.676Zm3.01-1.279h-1.715v.564h1.673v.633h-1.673v.617l1.715,0v.644h-2.444v-3.1h2.444v.642Zm1.865,2.461H137.36v-.665h1.421a.424.424,0,0,0,.3-.077.277.277,0,0,0,.086-.2.268.268,0,0,0-.09-.206.38.38,0,0,0-.261-.069c-.685-.023-1.542.021-1.542-.961a.916.916,0,0,1,1.047-.924h1.468v.66h-1.343a.494.494,0,0,0-.294.056.262.262,0,0,0,.05.455.842.842,0,0,0,.285.035l.394.011a1.17,1.17,0,0,1,.836.249.868.868,0,0,1,.219.657C139.936,244.546,139.525,244.857,138.786,244.857Zm3.768-.3a1.238,1.238,0,0,1-.91.3h-1.414v-.665h1.408a.41.41,0,0,0,.3-.077.273.273,0,0,0,.086-.2.257.257,0,0,0-.09-.206.367.367,0,0,0-.258-.069c-.688-.023-1.545.021-1.545-.961a.919.919,0,0,1,1.051-.924h1.431v.66H141.3a.505.505,0,0,0-.3.056.242.242,0,0,0-.107.223.234.234,0,0,0,.16.231.821.821,0,0,0,.282.035l.4.011a1.145,1.145,0,0,1,.83.25.416.416,0,0,1,.068.077l-.025-.032a1.019,1.019,0,0,1-.059,1.292ZM125,242.4l.8.9-.837.91h-1.8v-.617h1.608v-.633h-1.608V242.4Zm1.744.915,1.124-1.223v2.487Zm3.256-.534c0,.269-.175.41-.457.41h-.946v-.79h.955C129.811,242.4,129.995,242.505,129.995,242.777Zm3.268-.045a.335.335,0,0,1-.152.3.693.693,0,0,1-.361.064h-.89v-.7h.9a.713.713,0,0,1,.35.056A.3.3,0,0,1,133.262,242.732Z" transform="translate(-113.629 -224.865)" fill="#fff"/>
</svg>
