<svg xmlns="http://www.w3.org/2000/svg" width="36" height="23" viewBox="0 0 36 23">
  <g id="arrow" transform="translate(0 -85.333)">
    <g id="Group_26" data-name="Group 26" transform="translate(0 85.333)">
      <path id="Path_7" data-name="Path 7" d="M35.78,96.325,24.53,85.543a.773.773,0,0,0-1.061,0,.7.7,0,0,0,0,1.016l9.97,9.554H.75a.719.719,0,1,0,0,1.438H33.439l-9.97,9.554a.7.7,0,0,0,0,1.016.773.773,0,0,0,1.061,0L35.78,97.341A.7.7,0,0,0,35.78,96.325Z" transform="translate(0 -85.333)" fill="#848484"/>
    </g>
  </g>
</svg>
