<svg xmlns="http://www.w3.org/2000/svg" width="28" height="22" viewBox="0 0 28 22">
  <g id="measuring" transform="translate(-16 -56)">
    <rect id="Rectangle_29" data-name="Rectangle 29" width="1" height="3" transform="translate(18 72.979)" fill="#3b3b3b"/>
    <rect id="Rectangle_30" data-name="Rectangle 30" width="1" height="1" transform="translate(20 73.485)" fill="#3b3b3b"/>
    <rect id="Rectangle_31" data-name="Rectangle 31" width="1" height="1" transform="translate(20 74.979)" fill="#3b3b3b"/>
    <path id="Path_59" data-name="Path 59" d="M169.78,116.382a11.46,11.46,0,0,0,7.449,0c1.148-.459,1.78-1.127,1.78-1.88s-.632-1.421-1.78-1.88a11.46,11.46,0,0,0-7.449,0c-1.148.459-1.78,1.127-1.78,1.88S168.632,115.923,169.78,116.382ZM173.5,113c2.749,0,4.5.889,4.5,1.5s-1.754,1.5-4.5,1.5-4.5-.889-4.5-1.5S170.755,113,173.5,113Z" transform="translate(-143.505 -52.692)" fill="#3b3b3b"/>
    <path id="Path_60" data-name="Path 60" d="M40.267,65.68H39.8v-4.4c0-1.461-1.057-2.813-2.975-3.808A15.146,15.146,0,0,0,30,56a15.143,15.143,0,0,0-6.825,1.472c-1.919,1-2.975,2.347-2.975,3.808v6.16c0,1.461,1.057,2.813,2.975,3.808a11.112,11.112,0,0,0,1.369.592H16.467a.454.454,0,0,0-.467.44v5.28a.454.454,0,0,0,.467.44h23.8A3.635,3.635,0,0,0,44,74.48V69.2A3.635,3.635,0,0,0,40.267,65.68ZM21.6,77.12H16.933v-4.4H21.6ZM38.867,65.68H35.455a11.112,11.112,0,0,0,1.369-.592,6.924,6.924,0,0,0,2.042-1.531ZM23.625,58.243A14.16,14.16,0,0,1,30,56.88a14.16,14.16,0,0,1,6.375,1.363c1.607.833,2.492,1.912,2.492,3.037s-.885,2.2-2.492,3.037A14.16,14.16,0,0,1,30,65.68a14.16,14.16,0,0,1-6.375-1.363c-1.607-.833-2.492-1.912-2.492-3.037S22.018,59.076,23.625,58.243Zm0,12.234c-1.607-.833-2.492-1.912-2.492-3.037V63.557a6.918,6.918,0,0,0,2.042,1.531q.364.189.758.354v2h.933V65.791a14.274,14.274,0,0,0,1.4.38v1.27H27.2V66.345c.456.072.924.126,1.4.162V69.2h.933V66.554q.232.005.467.006h.933v.88h.933v-.88h1.4v.88H34.2v-.88h1.4V69.2h.933V66.56h1.4v.88h.933v-.88h1.4v.88H41.2v-.729a2.626,2.626,0,0,1,1.825,2.935,2.758,2.758,0,0,1-2.759,2.194H30A14.16,14.16,0,0,1,23.625,70.477Zm19.441,4a2.727,2.727,0,0,1-2.8,2.64H22.533v-4.4h1.4v.88h.933v-.88h1.4v.88H27.2v-.88h1.4v2.64h.933V72.72h1.4v.88h.933v-.88h1.4v.88H34.2v-.88h1.4v2.64h.933V72.72h1.4v.88h.933v-.88h1.4v.88H41.2v-.991a3.779,3.779,0,0,0,1.867-1.084Z" fill="#3b3b3b"/>
  </g>
</svg>
