<svg id="visa_2_" data-name="visa (2)" xmlns="http://www.w3.org/2000/svg" width="32" height="32" viewBox="0 0 32 32">
  <ellipse id="Ellipse_4" data-name="Ellipse 4" cx="16" cy="15.999" rx="16" ry="15.999" transform="translate(0 0.001)" fill="#f3f2f2"/>
  <g id="Group_30" data-name="Group 30" transform="translate(5.224 11.712)">
    <path id="Path_34" data-name="Path 34" d="M175.483,182.627l1.229-7.254H178.7l-1.228,7.254Z" transform="translate(-168.929 -175.256)" fill="#293688"/>
    <path id="Path_35" data-name="Path 35" d="M227.211,173.951a5.166,5.166,0,0,0-1.783-.3c-1.966,0-3.35.984-3.362,2.394-.011,1.042.988,1.623,1.743,1.971.774.355,1.035.583,1.031.9,0,.486-.619.709-1.19.709a4.2,4.2,0,0,1-1.872-.381l-.256-.116-.279,1.624a6.327,6.327,0,0,0,2.216.387c2.091,0,3.448-.972,3.464-2.479.008-.825-.523-1.453-1.67-1.971-.7-.335-1.121-.559-1.117-.9,0-.3.361-.624,1.139-.624a3.688,3.688,0,0,1,1.489.278l.178.084.27-1.572Z" transform="translate(-211.586 -173.647)" fill="#293688"/>
    <path id="Path_36" data-name="Path 36" d="M304.667,175.373a.989.989,0,0,0-1.03.618l-2.948,6.637h2.106l.409-1.112h2.516l.234,1.112h1.872l-1.638-7.254h-1.521Zm-.9,4.691c.164-.418.792-2.028.792-2.028-.011.019.164-.42.264-.692l.135.625.46,2.095h-1.651Z" transform="translate(-285.652 -175.256)" fill="#293688"/>
    <path id="Path_37" data-name="Path 37" d="M81.666,180.346l-.175-.994a5.667,5.667,0,0,0-2.752-3.042l1.757,6.318H82.6l3.159-7.254H83.656Z" transform="translate(-78.739 -175.256)" fill="#293688"/>
  </g>
  <g id="Group_31" data-name="Group 31" transform="translate(1.808 11.771)">
    <path id="Path_38" data-name="Path 38" d="M46.823,175.373v.117a6.791,6.791,0,0,1,4.914,3.861l-.721-3.359a.855.855,0,0,0-.917-.619Z" transform="translate(-45.459 -175.373)" fill="#f7981d"/>
    <path id="Path_39" data-name="Path 39" d="M40.887,354.886a15.98,15.98,0,0,0,14.191-8.653H26.7A15.98,15.98,0,0,0,40.887,354.886Z" transform="translate(-26.696 -334.657)" fill="#f7981d"/>
  </g>
  <path id="Path_40" data-name="Path 40" d="M42.613,0A15.98,15.98,0,0,0,28.548,8.408H56.679A15.982,15.982,0,0,0,42.613,0Z" transform="translate(-26.615)" fill="#293688"/>
</svg>
