<svg id="mastercard" xmlns="http://www.w3.org/2000/svg" width="32" height="32" viewBox="0 0 32 32">
  <circle id="Ellipse_2" data-name="Ellipse 2" cx="16" cy="16" r="16" transform="translate(0 0)" fill="#3c80ad"/>
  <path id="Path_12" data-name="Path 12" d="M58.619,121.955a7.394,7.394,0,1,0,5.012,12.862h0a7.425,7.425,0,0,0,.749-.792H62.87a7.16,7.16,0,0,1-.55-.762h2.607a7.393,7.393,0,0,0,.43-.791H61.89a7.2,7.2,0,0,1-.309-.777h4.084a7.379,7.379,0,0,0,.38-2.345,7.46,7.46,0,0,0-.17-1.584H61.364a7.532,7.532,0,0,1,.21-.777h4.086a7.413,7.413,0,0,0-.318-.792H61.889a7.135,7.135,0,0,1,.423-.777h2.605a7.348,7.348,0,0,0-.572-.791H62.893a6.76,6.76,0,0,1,.74-.747,7.338,7.338,0,0,0-4.965-1.928Z" transform="translate(-47.813 -113.745)" fill="#931b1d"/>
  <path id="Path_13" data-name="Path 13" d="M212.135,129.352a7.378,7.378,0,1,1-14.757,0v0a7.378,7.378,0,1,1,14.757,0S212.135,129.35,212.135,129.352Z" transform="translate(-184.115 -113.745)" fill="#f16622"/>
  <path id="Path_14" data-name="Path 14" d="M212.135,130.563a7.378,7.378,0,1,1-14.757,0v0a7.378,7.378,0,1,1,14.757,0S212.135,130.562,212.135,130.563Z" transform="translate(-184.115 -114.875)" fill="#f7981d"/>
  <path id="Path_15" data-name="Path 15" d="M58.619,123.193a7.395,7.395,0,1,0,5.012,12.862h0a7.311,7.311,0,0,0,.749-.792H62.87a7.1,7.1,0,0,1-.55-.761h2.607a7.455,7.455,0,0,0,.43-.792H61.89a7.256,7.256,0,0,1-.309-.776h4.084a7.383,7.383,0,0,0,.38-2.345,7.457,7.457,0,0,0-.17-1.584H61.364a7.53,7.53,0,0,1,.21-.777h4.086a7.422,7.422,0,0,0-.318-.792H61.889a7.2,7.2,0,0,1,.423-.776h2.605a7.484,7.484,0,0,0-.572-.792H62.893a6.847,6.847,0,0,1,.74-.747,7.339,7.339,0,0,0-4.965-1.927Z" transform="translate(-47.813 -114.899)" fill="#cb2026"/>
  <g id="Group_27" data-name="Group 27" transform="translate(4.175 13.777)">
    <path id="Path_16" data-name="Path 16" d="M182.643,212.438l.1-.669c-.054,0-.133.023-.2.023-.273,0-.3-.146-.286-.253l.221-1.366h.416l.1-.741H182.6l.08-.46h-.786c-.017.017-.464,2.589-.464,2.9a.584.584,0,0,0,.626.667A2.064,2.064,0,0,0,182.643,212.438Z" transform="translate(-173.352 -208.645)" fill="#fff"/>
    <path id="Path_17" data-name="Path 17" d="M203.035,216.292a1.234,1.234,0,0,0,1.357,1.377,1.988,1.988,0,0,0,.83-.13l.139-.759a2.43,2.43,0,0,1-.834.195c-.843,0-.7-.631-.7-.631h1.6a5.708,5.708,0,0,0,.1-.718,1.055,1.055,0,0,0-1.12-1.151C203.619,214.475,203.035,215.328,203.035,216.292Zm1.378-1.112c.443,0,.361.5.361.54H203.9C203.9,215.668,203.984,215.18,204.413,215.18Z" transform="translate(-193.505 -213.775)" fill="#fff"/>
    <path id="Path_18" data-name="Path 18" d="M267.883,207.941l.141-.859a1.881,1.881,0,0,1-.65.195.779.779,0,0,1-.781-.885c0-.93.479-1.441,1.014-1.441a1.4,1.4,0,0,1,.721.226l.128-.834a2.809,2.809,0,0,0-.884-.194c-.907,0-1.79.788-1.79,2.27,0,.981.477,1.63,1.414,1.63A3.611,3.611,0,0,0,267.883,207.941Z" transform="translate(-252.024 -204.149)" fill="#fff"/>
    <path id="Path_19" data-name="Path 19" d="M115.5,214.654a2.714,2.714,0,0,0-.952.173l-.114.678a2.483,2.483,0,0,1,.856-.138c.293,0,.506.033.506.271a.507.507,0,0,1-.026.2s-.23-.02-.337-.02c-.679,0-1.393.291-1.393,1.167a.746.746,0,0,0,.758.849,1.02,1.02,0,0,0,.806-.362l-.026.3h.692l.309-2.169A.929.929,0,0,0,115.5,214.654Zm.169,1.765c.015.133-.083.754-.556.754a.287.287,0,0,1-.308-.3c0-.215.117-.474.693-.474A.512.512,0,0,1,115.666,216.419Z" transform="translate(-110.505 -213.942)" fill="#fff"/>
    <path id="Path_20" data-name="Path 20" d="M150.233,217.885c.177,0,1.188.045,1.188-1,0-.978-.936-.785-.936-1.178,0-.195.153-.257.431-.257.111,0,.537.036.537.036l.1-.7a3.674,3.674,0,0,0-.725-.061c-.582,0-1.171.232-1.171,1.027,0,.9.984.811.984,1.191,0,.254-.275.274-.487.274a2.554,2.554,0,0,1-.7-.12l-.1.688A2.455,2.455,0,0,0,150.233,217.885Z" transform="translate(-143.439 -214.011)" fill="#fff"/>
    <path id="Path_21" data-name="Path 21" d="M361.914,205.422l-.169,1.054a1.038,1.038,0,0,0-.758-.409c-.72,0-1.32.87-1.32,1.869,0,.645.32,1.277.974,1.277a.98.98,0,0,0,.731-.329l-.034.281h.764l.6-3.744Zm-.365,2.055c0,.416-.206.97-.631.97-.283,0-.415-.238-.415-.611,0-.61.273-1.014.618-1.014C361.4,206.823,361.549,207.018,361.549,207.477Z" transform="translate(-339.583 -205.334)" fill="#fff"/>
    <path id="Path_22" data-name="Path 22" d="M62.376,209.156l.479-2.827.07,2.827h.541l1.01-2.827-.447,2.827h.8l.62-3.748H64.208l-.774,2.3-.04-2.3H62.247l-.628,3.748Z" transform="translate(-61.619 -205.323)" fill="#fff"/>
    <path id="Path_23" data-name="Path 23" d="M240.354,218.273c.229-1.3.271-2.361.817-2.168a3.052,3.052,0,0,1,.292-.913.816.816,0,0,0-.152-.01c-.351,0-.612.482-.612.482l.069-.442h-.732l-.489,3.052Z" transform="translate(-227.554 -214.435)" fill="#fff"/>
    <path id="Path_24" data-name="Path 24" d="M303.461,214.654a2.711,2.711,0,0,0-.951.173l-.114.678a2.477,2.477,0,0,1,.856-.138c.292,0,.507.033.507.271a.5.5,0,0,1-.026.2s-.23-.02-.338-.02c-.679,0-1.392.291-1.392,1.167a.747.747,0,0,0,.758.849,1.018,1.018,0,0,0,.806-.362l-.026.3h.692l.309-2.169A.929.929,0,0,0,303.461,214.654Zm.169,1.765c.015.133-.083.754-.556.754a.286.286,0,0,1-.307-.3c0-.215.117-.474.692-.474A.513.513,0,0,1,303.629,216.419Z" transform="translate(-285.801 -213.942)" fill="#fff"/>
    <path id="Path_25" data-name="Path 25" d="M337.7,218.273c.229-1.3.271-2.361.817-2.168a3.032,3.032,0,0,1,.292-.913.828.828,0,0,0-.152-.01c-.352,0-.612.482-.612.482l.07-.442h-.732l-.49,3.051h.807Z" transform="translate(-318.354 -214.435)" fill="#fff"/>
  </g>
</svg>
