<svg id="paypal" xmlns="http://www.w3.org/2000/svg" width="32" height="32" viewBox="0 0 32 32">
  <circle id="Ellipse_3" data-name="Ellipse 3" cx="16" cy="16" r="16" transform="translate(0 0)" fill="#f3f2f2"/>
  <g id="Group_28" data-name="Group 28" transform="translate(16.144 12.21)">
    <path id="Path_26" data-name="Path 26" d="M312.9,197.133a7.117,7.117,0,0,0-1.6.258l-.124,1.016a4.361,4.361,0,0,1,1.367-.291c.529-.016.839.1.73.548-1.569,0-2.626.322-2.844,1.338-.311,1.741,1.6,1.693,2.362.935l-.093.419h1.4l.606-2.773C314.955,197.407,313.883,197.118,312.9,197.133ZM313,199.97a.7.7,0,0,1-.73.548c-.311.016-.59-.259-.388-.581.155-.274.591-.338.855-.338h.342C313.044,199.728,313.028,199.841,313,199.97Z" transform="translate(-305.623 -196.037)" fill="#1a80ad"/>
    <path id="Path_27" data-name="Path 27" d="M375.707,180.963l-1.157,5.319h1.42l1.172-5.319Z" transform="translate(-365.427 -180.963)" fill="#1a80ad"/>
    <path id="Path_28" data-name="Path 28" d="M243.652,181.2h-2.6l-1.152,5.3h1.51l.39-1.757h1.074a2.132,2.132,0,0,0,2.165-1.741A1.39,1.39,0,0,0,243.652,181.2Zm-.046,1.805a.971.971,0,0,1-.888.725h-.7l.312-1.451h.747A.546.546,0,0,1,243.606,183.007Z" transform="translate(-239.899 -181.186)" fill="#1a80ad"/>
  </g>
  <g id="Group_29" data-name="Group 29" transform="translate(2.678 12.183)">
    <path id="Path_29" data-name="Path 29" d="M112.51,197.133a6.658,6.658,0,0,0-1.566.258l-.122,1.015a4.05,4.05,0,0,1,1.336-.291c.522-.016.829.1.736.548-1.55,0-2.594.322-2.809,1.338-.307,1.741,1.581,1.693,2.318.935l-.092.419h1.4l.6-2.773C114.551,197.407,113.477,197.118,112.51,197.133Zm.108,2.837a.711.711,0,0,1-.737.548.373.373,0,0,1-.368-.581c.153-.274.583-.338.829-.338h.353A3,3,0,0,0,112.618,199.97Z" transform="translate(-105.296 -196.014)" fill="#1a5b80"/>
    <path id="Path_30" data-name="Path 30" d="M175.632,198.272h1.4l.225,2.469,1.366-2.469h1.441l-3.319,5.91h-1.562l1.021-1.737Z" transform="translate(-166.037 -197.075)" fill="#1a5b80"/>
    <path id="Path_31" data-name="Path 31" d="M43.283,181.2H40.675l-1.155,5.3h1.53l.375-1.757h1.093a2.132,2.132,0,0,0,2.155-1.741A1.386,1.386,0,0,0,43.283,181.2Zm-.047,1.805a.954.954,0,0,1-.874.725h-.718l.328-1.451h.749A.538.538,0,0,1,43.236,183.007Z" transform="translate(-39.52 -181.162)" fill="#1a5b80"/>
    <path id="Path_32" data-name="Path 32" d="M414.113,181.323V180.7h-.234v-.084h.564v.084h-.235v.627Z" transform="translate(-388.626 -180.611)" fill="#1a5b80"/>
    <path id="Path_33" data-name="Path 33" d="M423.575,181.323v-.712h.141l.169.5c.016.047.027.082.034.1l.038-.114.171-.495h.126v.712h-.091v-.6l-.207.6h-.084l-.206-.606v.606Z" transform="translate(-397.665 -180.611)" fill="#1a5b80"/>
  </g>
</svg>
