<svg id="instagram" xmlns="http://www.w3.org/2000/svg" width="24" height="24" viewBox="0 0 24 24">
  <path id="Path_53" data-name="Path 53" d="M211.6,209.3a2.3,2.3,0,1,1-2.3-2.3A2.3,2.3,0,0,1,211.6,209.3Zm0,0" transform="translate(-197.3 -197.3)" fill="#fff"/>
  <path id="Path_54" data-name="Path 54" d="M146.522,137.076a2.285,2.285,0,0,0-1.31-1.31,3.818,3.818,0,0,0-1.281-.237c-.728-.033-.946-.04-2.789-.04s-2.061.007-2.789.04a3.82,3.82,0,0,0-1.281.238,2.286,2.286,0,0,0-1.31,1.31,3.82,3.82,0,0,0-.237,1.281c-.033.728-.04.946-.04,2.789s.007,2.061.04,2.789a3.818,3.818,0,0,0,.237,1.281,2.285,2.285,0,0,0,1.31,1.31,3.813,3.813,0,0,0,1.281.238c.728.033.946.04,2.788.04s2.061-.007,2.789-.04a3.813,3.813,0,0,0,1.281-.238,2.285,2.285,0,0,0,1.31-1.31,3.822,3.822,0,0,0,.238-1.281c.033-.728.04-.946.04-2.789s-.007-2.061-.04-2.789A3.814,3.814,0,0,0,146.522,137.076Zm-5.38,7.614a3.544,3.544,0,1,1,3.544-3.544A3.544,3.544,0,0,1,141.142,144.689Zm3.684-6.4a.828.828,0,1,1,.828-.828A.828.828,0,0,1,144.826,138.29Zm0,0" transform="translate(-129.142 -129.146)" fill="#fff"/>
  <path id="Path_55" data-name="Path 55" d="M12,0A12,12,0,1,0,24,12,12,12,0,0,0,12,0Zm6.849,14.841a5.056,5.056,0,0,1-.32,1.673,3.523,3.523,0,0,1-2.015,2.015,5.059,5.059,0,0,1-1.672.32c-.735.034-.97.042-2.841.042s-2.106-.008-2.841-.042a5.059,5.059,0,0,1-1.672-.32,3.523,3.523,0,0,1-2.015-2.015,5.054,5.054,0,0,1-.32-1.672c-.034-.735-.042-.97-.042-2.841s.008-2.106.042-2.841a5.056,5.056,0,0,1,.32-1.673A3.526,3.526,0,0,1,7.486,5.471a5.06,5.06,0,0,1,1.673-.32c.735-.034.97-.042,2.841-.042s2.106.008,2.841.042a5.061,5.061,0,0,1,1.673.32,3.524,3.524,0,0,1,2.015,2.015,5.055,5.055,0,0,1,.32,1.673c.034.735.041.97.041,2.841S18.883,14.106,18.849,14.841Zm0,0" fill="#fff"/>
</svg>
