<svg xmlns="http://www.w3.org/2000/svg" width="129" height="71.885" viewBox="0 0 129 71.885">
  <g id="Group_47" data-name="Group 47" transform="translate(-619 -18.115)">
    <g id="Group_16" data-name="Group 16">
      <text id="BG" transform="translate(656 60)" fill="#fff" font-size="40" font-family="Lora-Regular, Lora" letter-spacing="0.02em"><tspan x="0" y="0">BG</tspan></text>
      <text id="be_gentleman_" data-name="be gentleman " transform="translate(619 87)" fill="#fff" font-size="16" font-family="Lato-Light, Lato" font-weight="300" letter-spacing="0.02em"><tspan x="0" y="0">BE GENTLEMAN </tspan></text>
    </g>
    <g id="gentleman" transform="translate(660 17.615)">
      <g id="Group_43" data-name="Group 43" transform="translate(0 0.5)">
        <path id="Path_58" data-name="Path 58" d="M9.88,8.11a51.429,51.429,0,0,1,.657-6.5.454.454,0,0,0,0-.079C10.493.54,7.038.5,5.984.5c-1.7,0-4.558.137-4.558,1.052a1.136,1.136,0,0,0,.014.115A51.047,51.047,0,0,1,2.088,8.11C.759,8.566,0,9.227,0,9.99c0,1.594,3.094,2.454,5.984,2.454s5.984-.86,5.984-2.454C11.968,9.227,11.209,8.566,9.88,8.11ZM9.14,9.932a7.979,7.979,0,0,1-3.156.433,7.979,7.979,0,0,1-3.156-.433c0-.218-.011-.437-.015-.655a10.956,10.956,0,0,0,3.17.386,10.956,10.956,0,0,0,3.17-.386C9.151,9.495,9.14,9.714,9.14,9.932ZM5.984,1.9a14.1,14.1,0,0,1-3.6-.351,14.1,14.1,0,0,1,3.6-.351,14.1,14.1,0,0,1,3.6.351A14.1,14.1,0,0,1,5.984,1.9Z" transform="translate(0 -0.5)" fill="#fff"/>
      </g>
    </g>
  </g>
</svg>
